HIERARCHY
ROOT Hips
{
	OFFSET -0.001795 -0.223333 0.028219
	CHANNELS 6 Xposition Yposition Zposition Zrotation Yrotation Xrotation 
	JOINT LeftUpLeg
	{
		OFFSET 0.069520 -0.091406 -0.006815
		CHANNELS 3 Zrotation Yrotation Xrotation
		JOINT LeftLeg
		{
			OFFSET 0.034277 -0.375199 -0.004496
			CHANNELS 3 Zrotation Yrotation Xrotation
			JOINT LeftFoot
			{
				OFFSET -0.013596 -0.397961 -0.043693
				CHANNELS 3 Zrotation Yrotation Xrotation
				JOINT LeftToe
				{
					OFFSET 0.026358 -0.055791 0.119288
					CHANNELS 3 Zrotation Yrotation Xrotation
					End Site
					{
						OFFSET 0.000000 0.000000 0.000000
					}
				}
			}
		}
	}
	JOINT RightUpLeg
	{
		OFFSET -0.067670 -0.090522 -0.004320
		CHANNELS 3 Zrotation Yrotation Xrotation
		JOINT RightLeg
		{
			OFFSET -0.038290 -0.382569 -0.008850
			CHANNELS 3 Zrotation Yrotation Xrotation
			JOINT RightFoot
			{
				OFFSET 0.015774 -0.398415 -0.042312
				CHANNELS 3 Zrotation Yrotation Xrotation
				JOINT RightToe
				{
					OFFSET -0.025372 -0.048144 0.123348
					CHANNELS 3 Zrotation Yrotation Xrotation
					End Site
					{
						OFFSET 0.000000 0.000000 0.000000
					}
				}
			}
		}
	}
	JOINT Spine
	{
		OFFSET -0.002533 0.108963 -0.026696
		CHANNELS 3 Zrotation Yrotation Xrotation
		JOINT Spine1
		{
			OFFSET 0.005487 0.135180 0.001092
			CHANNELS 3 Zrotation Yrotation Xrotation
			JOINT Spine2
			{
				OFFSET 0.001457 0.052922 0.025425
				CHANNELS 3 Zrotation Yrotation Xrotation
				JOINT Neck
				{
					OFFSET -0.002778 0.213870 -0.042857
					CHANNELS 3 Zrotation Yrotation Xrotation
					JOINT Head
					{
						OFFSET 0.005152 0.064970 0.051349
						CHANNELS 3 Zrotation Yrotation Xrotation
						End Site
						{
							OFFSET 0.000000 0.000000 0.000000
						}
					}
				}
				JOINT LeftShoulder
				{
					OFFSET 0.078845 0.121749 -0.034090
					CHANNELS 3 Zrotation Yrotation Xrotation
					JOINT LeftArm
					{
						OFFSET 0.090977 0.030469 -0.008868
						CHANNELS 3 Zrotation Yrotation Xrotation
						JOINT LeftForeArm
						{
							OFFSET 0.259612 -0.012772 -0.027456
							CHANNELS 3 Zrotation Yrotation Xrotation
							JOINT LeftHand
							{
								OFFSET 0.249234 0.008986 -0.001171
								CHANNELS 3 Zrotation Yrotation Xrotation
								End Site
								{
									OFFSET 0.000000 0.000000 0.000000
								}
							}
						}
					}
				}
				JOINT RightShoulder
				{
					OFFSET -0.081759 0.118833 -0.038615
					CHANNELS 3 Zrotation Yrotation Xrotation
					JOINT RightArm
					{
						OFFSET -0.096012 0.032551 -0.009143
						CHANNELS 3 Zrotation Yrotation Xrotation
						JOINT RightForeArm
						{
							OFFSET -0.253742 -0.013329 -0.021401
							CHANNELS 3 Zrotation Yrotation Xrotation
							JOINT RightHand
							{
								OFFSET -0.255298 0.007772 -0.005559
								CHANNELS 3 Zrotation Yrotation Xrotation
								End Site
								{
									OFFSET 0.000000 0.000000 0.000000
								}
							}
						}
					}
				}
			}
		}
	}
}
MOTION
Frames: 8
Frame Time: 0.050000
-0.807938 0.773543 0.825975 -2.315385 -1.789970 12.045525 7.711228 -0.805089 -32.757093 6.222589 -7.670136 74.309782 -2.059266 -11.778417 -10.234531 0.000000 0.000000 0.000000 4.913527 6.376981 -42.849480 -3.802964 9.062080 79.309400 -4.335083 -0.121737 -21.964504 0.000000 0.000000 0.000000 0.485217 -1.341313 31.129339 -3.358978 1.531615 -1.050293 -5.968141 7.250020 8.449902 12.533466 -1.687848 -36.280741 0.000000 0.000000 0.000000 -18.149002 -23.236422 8.990345 -41.075326 -14.342200 0.052316 22.572688 -42.168425 -7.701917 0.000000 0.000000 0.000000 14.162385 16.836726 9.228069 50.126663 21.111730 3.378603 -53.782072 58.790615 -25.432421 0.000000 0.000000 0.000000 
-0.807775 0.770087 0.825238 -2.845363 -1.999666 13.394174 8.003443 -0.715094 -31.871857 6.372267 -7.616528 74.493472 -3.175468 -13.699248 -8.896073 0.000000 0.000000 0.000000 4.836408 6.428721 -43.214020 -3.128321 8.608878 79.993292 -4.483815 0.259537 -23.101292 0.000000 0.000000 0.000000 0.480700 -1.303385 30.498251 -3.302640 1.497639 -1.108310 -6.437066 7.337651 7.895852 12.892323 -1.925292 -35.425331 0.000000 0.000000 0.000000 -17.817257 -22.696340 8.659728 -40.244860 -13.599386 -0.147566 19.855876 -43.085364 -6.793945 0.000000 0.000000 0.000000 14.853005 16.254964 9.114413 50.028211 21.003756 3.333134 -54.602049 60.896099 -27.055931 0.000000 0.000000 0.000000 
-0.807822 0.765709 0.824398 -3.371192 -2.427079 14.566616 8.605307 -0.536168 -31.195749 6.395731 -7.409076 75.342946 -4.201211 -15.294974 -7.616599 0.000000 0.000000 0.000000 4.954404 6.500379 -43.099362 -2.378153 8.159088 80.496446 -4.753464 -0.779383 -23.561341 0.000000 0.000000 0.000000 0.087637 -1.125213 29.992355 -3.154737 1.425765 -1.056885 -6.627819 7.817737 7.481280 13.290846 -2.126359 -34.812237 0.000000 0.000000 0.000000 -17.282641 -22.351353 8.357402 -39.690849 -12.883768 -0.332258 18.468924 -44.418219 -6.504683 0.000000 0.000000 0.000000 15.472358 16.039111 9.237316 49.387462 21.131423 3.296168 -55.821507 62.358386 -28.570924 0.000000 0.000000 0.000000 
-0.807891 0.759587 0.823093 -4.322715 -2.651155 15.797588 9.639210 -0.289672 -30.268380 6.586227 -7.375456 75.999649 -6.474073 -17.386639 -3.613970 0.000000 0.000000 0.000000 5.112682 6.577155 -43.088231 -1.572429 7.586676 81.200401 -4.843664 -0.442029 -24.358412 0.000000 0.000000 0.000000 0.487007 -1.234417 29.722877 -3.097101 1.384183 -1.815560 -6.875775 8.281431 7.443477 13.659890 -2.351299 -34.071022 0.000000 0.000000 0.000000 -17.083918 -21.987931 8.075168 -38.744992 -11.682735 -0.653641 16.123184 -47.330343 -6.000125 0.000000 0.000000 0.000000 15.567878 15.923723 9.320985 48.404641 20.145029 2.769498 -56.769514 65.166549 -30.832205 0.000000 0.000000 0.000000 
-0.808003 0.748782 0.822085 -4.862661 -2.704415 17.334129 10.462873 -0.144686 -29.421614 6.027885 -6.748518 77.270828 -8.609812 -18.945378 0.176799 0.000000 0.000000 0.000000 5.131265 6.634036 -43.455773 -0.814182 7.082664 82.930433 -4.634979 -0.818469 -22.903058 0.000000 0.000000 0.000000 0.860504 -1.347882 29.288836 -2.903284 1.283500 -2.544182 -7.313256 8.638308 7.368668 13.947205 -2.417754 -33.933041 0.000000 0.000000 0.000000 -16.201605 -22.011202 7.985255 -38.662642 -11.018311 -0.830866 16.322145 -50.287833 -6.609982 0.000000 0.000000 0.000000 15.539255 15.819530 9.415711 48.510671 20.036279 2.758240 -57.101145 67.678450 -32.479252 0.000000 0.000000 0.000000 
-0.808089 0.733308 0.822207 -5.536180 -1.774458 18.960253 11.270162 -0.139314 -27.914968 5.998731 -6.979966 77.380714 -9.667390 -20.391645 1.239436 0.000000 0.000000 0.000000 4.770803 6.245607 -42.873530 -0.111083 6.024573 84.568457 -4.442472 -0.306720 -22.448949 0.000000 0.000000 0.000000 1.902075 -1.762156 28.642719 -2.810341 1.234652 -2.365868 -7.941796 8.932252 6.449824 14.701372 -2.876634 -32.410849 0.000000 0.000000 0.000000 -16.199227 -22.650689 8.130487 -36.632215 -10.014759 -0.938341 16.729994 -54.962158 -7.688375 0.000000 0.000000 0.000000 16.811460 15.855485 9.968300 47.110903 18.979531 2.155100 -58.220517 70.479874 -34.959504 0.000000 0.000000 0.000000 
-0.808271 0.714251 0.823329 -6.000132 -1.172476 20.255060 12.152233 -0.169184 -24.855801 5.493780 -6.459399 76.801397 -10.724953 -22.863127 1.193034 0.000000 0.000000 0.000000 4.537537 5.926327 -42.079126 0.039826 5.777816 86.824799 -3.623276 1.664827 -20.141916 0.000000 0.000000 0.000000 2.294469 -1.939783 28.199850 -2.653375 1.156046 -2.938461 -8.516963 9.415259 6.540981 15.471089 -3.195531 -31.900813 0.000000 0.000000 0.000000 -15.293488 -23.221979 8.230589 -35.881455 -9.586491 -1.004400 17.855132 -60.139778 -9.434945 0.000000 0.000000 0.000000 18.470700 15.193806 10.234550 46.289265 18.117787 1.601989 -59.179909 74.164545 -37.926219 0.000000 0.000000 0.000000 
-0.808744 0.692996 0.824272 -6.094756 0.149404 22.088280 12.990397 -0.286552 -22.657514 4.922098 -6.158146 75.562163 -10.290821 -24.371608 -1.099723 0.000000 0.000000 0.000000 4.187124 5.389483 -40.645326 -0.178459 5.377092 88.119738 -3.095033 4.398415 -20.154385 0.000000 0.000000 0.000000 2.888243 -2.192193 26.985749 -2.855388 1.222143 -3.481095 -8.708744 9.620860 6.789223 16.102855 -3.420467 -31.615039 0.000000 0.000000 0.000000 -14.344359 -23.638405 8.283017 -33.956739 -9.900137 -0.878305 18.741063 -66.613984 -11.483531 0.000000 0.000000 0.000000 19.846089 14.668889 10.530003 44.759795 17.705996 1.169945 -59.160454 76.982551 -39.641845 0.000000 0.000000 0.000000 
